<?xml version="1.0" encoding="utf-8"?>
<!-- Generator: Adobe Illustrator 16.0.0, SVG Export Plug-In . SVG Version: 6.00 Build 0)  -->
<!DOCTYPE svg PUBLIC "-//W3C//DTD SVG 1.1//EN" "http://www.w3.org/Graphics/SVG/1.1/DTD/svg11.dtd">
<svg version="1.1" id="Ebene_1" xmlns="http://www.w3.org/2000/svg" xmlns:xlink="http://www.w3.org/1999/xlink" x="0px" y="0px"
	 width="235.77px" height="730.888px" viewBox="0 0 235.77 730.888" enable-background="new 0 0 235.77 730.888"
	 xml:space="preserve">
<g>
	<rect x="47.152" y="94.308" fill="#E2BA7C" width="23.58" height="23.58"/>
	<rect x="70.731" y="94.308" width="23.577" height="23.58"/>
	<rect x="94.308" y="94.308" fill="#E2BA7C" width="23.58" height="23.58"/>
	<rect x="117.888" y="94.308" fill="#E2BA7C" width="23.578" height="23.58"/>
	<rect x="141.465" y="94.308" width="23.576" height="23.58"/>
	<rect x="165.042" y="94.308" fill="#E2BA7C" width="23.58" height="23.58"/>
</g>
<g>
	<rect x="47.144" y="70.731" fill="#E2BA7C" width="23.577" height="23.58"/>
	<rect x="70.721" y="70.731" fill="#E2BA7C" width="23.58" height="23.58"/>
	<rect x="94.3" y="70.731" fill="#E2BA7C" width="23.577" height="23.58"/>
	<rect x="117.877" y="70.731" fill="#E2BA7C" width="23.58" height="23.58"/>
	<rect x="141.458" y="70.731" fill="#E2BA7C" width="23.579" height="23.58"/>
	<rect x="165.037" y="70.731" fill="#E2BA7C" width="23.577" height="23.58"/>
</g>
<rect x="47.154" y="47.154" fill="#E84E1B" width="23.577" height="23.58"/>
<rect x="70.731" y="47.154" fill="#E84E1B" width="23.577" height="23.58"/>
<rect x="94.308" y="47.154" fill="#E84E1B" width="23.577" height="23.58"/>
<rect x="117.885" y="47.154" fill="#E84E1B" width="23.582" height="23.58"/>
<rect x="141.467" y="47.154" fill="#E84E1B" width="23.577" height="23.58"/>
<rect x="70.731" y="70.731" fill="#E84E1B" width="23.577" height="23.58"/>
<rect x="94.308" y="70.731" fill="#E84E1B" width="23.577" height="23.58"/>
<rect x="117.885" y="70.731" fill="#E84E1B" width="23.582" height="23.58"/>
<rect x="141.467" y="70.731" fill="#E84E1B" width="23.577" height="23.58"/>
<rect x="165.044" y="47.154" fill="#E84E1B" width="23.577" height="23.58"/>
<g>
	<rect x="47.154" y="23.577" fill="#E84E1B" width="23.577" height="23.58"/>
	<rect x="70.731" y="23.577" fill="#E84E1B" width="23.577" height="23.58"/>
	<rect x="94.308" y="23.577" fill="#E84E1B" width="23.577" height="23.58"/>
	<rect x="117.885" y="23.577" fill="#E84E1B" width="23.582" height="23.58"/>
	<rect x="141.467" y="23.577" fill="#E84E1B" width="23.577" height="23.58"/>
	<rect x="165.044" y="23.577" fill="#E84E1B" width="23.577" height="23.58"/>
</g>
<rect x="23.577" y="47.154" fill="#E84E1B" width="23.578" height="23.58"/>
<rect x="23.577" y="94.305" fill="#E84E1B" width="23.578" height="23.58"/>
<rect x="23.577" y="70.731" fill="#E84E1B" width="23.578" height="23.58"/>
<rect x="94.308" fill="#E84E1B" width="23.577" height="23.58"/>
<rect x="117.885" fill="#E84E1B" width="23.582" height="23.58"/>
<rect x="188.616" y="47.154" fill="#E84E1B" width="23.578" height="23.58"/>
<rect x="188.616" y="70.729" fill="#E84E1B" width="23.578" height="23.58"/>
<rect x="188.616" y="94.305" fill="#E84E1B" width="23.578" height="23.58"/>
<rect x="212.194" y="94.305" fill="#E84E1B" width="23.576" height="23.58"/>
<rect x="212.194" y="117.885" fill="#E84E1B" width="23.576" height="23.58"/>
<rect x="212.194" y="141.459" fill="#E84E1B" width="23.576" height="23.58"/>
<rect x="212.194" y="165.04" fill="#E84E1B" width="23.576" height="23.58"/>
<rect x="212.194" y="188.613" fill="#E84E1B" width="23.576" height="23.58"/>
<rect x="212.194" y="212.19" fill="#E84E1B" width="23.576" height="23.58"/>
<rect x="188.616" y="141.462" fill="#E84E1B" width="23.578" height="23.58"/>
<rect x="188.616" y="165.042" fill="#E84E1B" width="23.578" height="23.577"/>
<rect x="188.616" y="188.616" fill="#E84E1B" width="23.578" height="23.58"/>
<polyline fill="#E84E1B" points="188.616,235.773 188.616,212.196 212.194,212.196 212.194,235.773 188.616,235.773 "/>
<polyline fill="#E84E1B" points="188.616,259.347 188.616,235.771 212.194,235.771 212.194,259.347 188.616,259.347 "/>
<rect x="165.04" y="212.19" fill="#E84E1B" width="23.576" height="23.578"/>
<polyline fill="#E84E1B" points="141.461,235.771 141.461,212.19 165.04,212.19 165.04,235.771 141.461,235.771 "/>
<rect x="70.731" y="212.19" fill="#E84E1B" width="23.577" height="23.578"/>
<polyline fill="#E84E1B" points="47.154,235.771 47.154,212.19 70.731,212.19 70.731,235.771 47.154,235.771 "/>
<rect x="165.04" y="235.771" fill="#E84E1B" width="23.576" height="23.579"/>
<rect x="23.577" y="141.462" fill="#E84E1B" width="23.578" height="23.58"/>
<rect x="23.577" y="165.042" fill="#E84E1B" width="23.578" height="23.577"/>
<rect x="23.577" y="188.616" fill="#E84E1B" width="23.578" height="23.58"/>
<rect y="141.464" fill="#E84E1B" width="23.577" height="23.578"/>
<rect y="117.885" fill="#E84E1B" width="23.577" height="23.58"/>
<rect y="94.308" fill="#E84E1B" width="23.577" height="23.58"/>
<rect y="165.042" fill="#E84E1B" width="23.577" height="23.577"/>
<rect y="188.619" fill="#E84E1B" width="23.577" height="23.577"/>
<rect y="212.193" fill="#E84E1B" width="23.577" height="23.578"/>
<rect x="23.577" y="212.19" fill="#E84E1B" width="23.578" height="23.58"/>
<rect x="23.577" y="235.768" fill="#E84E1B" width="23.578" height="23.579"/>
<rect x="47.154" y="235.771" fill="#E84E1B" width="23.577" height="23.576"/>
<rect x="70.731" y="235.771" fill="#81C395" width="23.577" height="23.576"/>
<rect x="47.154" y="282.924" fill="#81C395" width="23.577" height="23.578"/>
<rect x="70.731" y="306.502" fill="#81C395" width="23.577" height="23.576"/>
<rect x="47.154" y="306.502" fill="#81C395" width="23.577" height="23.576"/>
<rect x="141.461" y="235.771" fill="#81C395" width="23.578" height="23.576"/>
<rect x="47.144" y="117.885" fill="#E2BA7C" width="23.577" height="23.58"/>
<rect x="70.721" y="117.885" fill="#E2BA7C" width="23.58" height="23.58"/>
<rect x="94.3" y="117.885" fill="#E2BA7C" width="23.577" height="23.58"/>
<rect x="117.877" y="117.885" fill="#E2BA7C" width="23.58" height="23.58"/>
<rect x="141.458" y="117.885" fill="#E2BA7C" width="23.579" height="23.58"/>
<rect x="165.037" y="117.885" fill="#E2BA7C" width="23.577" height="23.58"/>
<rect x="47.144" y="141.462" fill="#E2BA7C" width="23.577" height="23.58"/>
<rect x="70.721" y="141.462" fill="#E2BA7C" width="23.58" height="23.58"/>
<rect x="94.3" y="141.462" fill="#E2BA7C" width="23.577" height="23.58"/>
<rect x="117.877" y="141.462" fill="#E2BA7C" width="23.58" height="23.58"/>
<rect x="141.458" y="141.462" fill="#E2BA7C" width="23.579" height="23.58"/>
<rect x="165.037" y="141.462" fill="#E2BA7C" width="23.577" height="23.58"/>
<rect x="47.144" y="165.04" fill="#E2BA7C" width="23.577" height="23.58"/>
<rect x="70.721" y="165.04" fill="#E2BA7C" width="23.58" height="23.58"/>
<rect x="94.3" y="165.04" fill="#E2BA7C" width="23.577" height="23.58"/>
<rect x="117.877" y="165.04" fill="#E2BA7C" width="23.58" height="23.58"/>
<rect x="141.458" y="165.04" fill="#E2BA7C" width="23.579" height="23.58"/>
<rect x="165.037" y="165.04" fill="#E2BA7C" width="23.577" height="23.58"/>
<rect x="47.144" y="188.613" fill="#E2BA7C" width="23.577" height="23.58"/>
<rect x="70.721" y="188.613" fill="#E2BA7C" width="23.58" height="23.58"/>
<rect x="94.3" y="188.613" fill="#E2BA7C" width="23.577" height="23.58"/>
<rect x="117.877" y="188.613" fill="#E2BA7C" width="23.58" height="23.58"/>
<rect x="141.458" y="188.613" fill="#E2BA7C" width="23.579" height="23.58"/>
<rect x="165.037" y="188.613" fill="#E2BA7C" width="23.577" height="23.58"/>
<rect x="94.305" y="212.193" fill="#E2BA7C" width="23.58" height="23.578"/>
<rect x="117.885" y="212.193" fill="#E2BA7C" width="23.576" height="23.578"/>
<rect x="188.614" y="117.885" fill="#E2BA7C" width="23.576" height="23.58"/>
<rect x="23.572" y="117.885" fill="#E2BA7C" width="23.58" height="23.58"/>
<rect x="94.311" y="235.771" fill="#E2BA7C" width="23.58" height="23.576"/>
<rect x="117.891" y="235.771" fill="#E2BA7C" width="23.579" height="23.576"/>
<rect x="70.726" y="141.462" fill="#FFFFFF" width="23.578" height="23.58"/>
<rect x="94.303" y="141.462" fill="#FFFFFF" width="23.577" height="23.58"/>
<rect x="117.88" y="141.462" fill="#FFFFFF" width="23.579" height="23.58"/>
<rect x="141.459" y="141.462" fill="#FFFFFF" width="23.58" height="23.58"/>
<rect x="94.303" y="165.04" fill="#FFFFFF" width="23.577" height="23.58"/>
<rect x="117.88" y="165.04" fill="#F2D3CC" width="23.579" height="23.58"/>
<rect x="141.459" y="165.04" fill="#FFFFFF" width="23.58" height="23.58"/>
<rect x="70.731" y="282.924" fill="#81C395" width="23.577" height="23.578"/>
<rect x="94.308" y="282.924" fill="#81C395" width="23.58" height="23.578"/>
<rect x="117.888" y="282.924" fill="#81C395" width="23.58" height="23.578"/>
<rect x="141.467" y="282.924" fill="#81C395" width="23.577" height="23.578"/>
<rect x="117.885" y="306.502" fill="#81C395" width="23.576" height="23.576"/>
<rect x="94.308" y="306.502" fill="#81C395" width="23.577" height="23.576"/>
<rect x="188.616" y="306.502" fill="#81C395" width="23.578" height="23.576"/>
<rect x="188.616" y="282.924" fill="#81C395" width="23.578" height="23.578"/>
<rect x="47.154" y="259.347" fill="#81C395" width="23.577" height="23.578"/>
<rect x="70.731" y="259.347" fill="#81C395" width="23.577" height="23.578"/>
<rect x="94.308" y="259.347" fill="#083644" width="23.58" height="23.578"/>
<rect x="117.888" y="259.347" fill="#083644" width="23.58" height="23.578"/>
<rect x="94.303" y="282.924" fill="#083644" width="23.58" height="23.578"/>
<rect x="117.883" y="282.924" fill="#083644" width="23.579" height="23.578"/>
<rect x="94.303" y="306.502" fill="#083644" width="23.58" height="23.576"/>
<rect x="117.883" y="306.502" fill="#083644" width="23.579" height="23.576"/>
<rect x="94.303" y="330.078" fill="#083644" width="23.58" height="23.578"/>
<rect x="117.883" y="330.078" fill="#083644" width="23.579" height="23.578"/>
<rect x="141.467" y="259.347" fill="#81C395" width="23.577" height="23.578"/>
<rect x="165.04" y="259.347" fill="#81C395" width="23.576" height="23.578"/>
<rect x="141.461" y="306.502" fill="#81C395" width="23.578" height="23.576"/>
<rect x="70.731" y="330.078" fill="#81C395" width="23.577" height="23.578"/>
<rect x="47.154" y="330.078" fill="#81C395" width="23.577" height="23.578"/>
<rect x="117.885" y="330.078" fill="#81C395" width="23.576" height="23.578"/>
<rect x="94.308" y="330.078" fill="#81C395" width="23.577" height="23.578"/>
<rect x="94.308" y="353.656" fill="#81C395" width="23.577" height="23.576"/>
<rect x="165.04" y="330.078" fill="#81C395" width="23.576" height="23.578"/>
<rect x="141.461" y="330.078" fill="#81C395" width="23.578" height="23.578"/>
<rect x="70.731" y="353.656" fill="#083644" width="23.577" height="23.576"/>
<rect x="47.154" y="353.656" fill="#81C395" width="23.577" height="23.576"/>
<rect x="47.154" y="377.232" fill="#81C395" width="23.577" height="23.577"/>
<rect x="117.885" y="353.656" fill="#81C395" width="23.576" height="23.576"/>
<rect x="94.308" y="353.656" fill="#81C395" width="23.577" height="23.576"/>
<rect x="165.04" y="353.656" fill="#81C395" width="23.576" height="23.576"/>
<rect x="141.461" y="353.656" fill="#083644" width="23.578" height="23.576"/>
<rect x="165.04" y="282.924" fill="#81C395" width="23.576" height="23.578"/>
<rect x="165.034" y="306.502" fill="#81C395" width="23.578" height="23.576"/>
<rect x="165.034" y="330.078" fill="#81C395" width="23.578" height="23.578"/>
<rect x="165.034" y="353.656" fill="#81C395" width="23.578" height="23.576"/>
<rect x="70.731" y="377.232" fill="#3C3C3B" width="23.577" height="23.577"/>
<rect x="117.885" y="377.232" fill="#3C3C3B" width="23.576" height="23.577"/>
<rect x="94.308" y="377.232" fill="#3C3C3B" width="23.577" height="23.577"/>
<rect x="165.04" y="400.809" fill="#81C395" width="23.576" height="23.578"/>
<rect x="141.461" y="377.232" fill="#3C3C3B" width="23.578" height="23.577"/>
<rect x="70.731" y="400.809" fill="#3C3C3B" width="23.577" height="23.578"/>
<rect x="117.885" y="400.809" fill="#3C3C3B" width="23.576" height="23.578"/>
<rect x="94.308" y="400.809" fill="#3C3C3B" width="23.577" height="23.578"/>
<rect x="165.04" y="424.387" fill="#81C395" width="23.576" height="23.576"/>
<rect x="141.461" y="400.809" fill="#3C3C3B" width="23.578" height="23.578"/>
<rect x="70.731" y="424.387" fill="#3C3C3B" width="23.577" height="23.576"/>
<rect x="117.885" y="424.387" fill="#3C3C3B" width="23.576" height="23.576"/>
<rect x="94.308" y="424.387" fill="#3C3C3B" width="23.577" height="23.576"/>
<rect x="141.461" y="424.387" fill="#3C3C3B" width="23.578" height="23.576"/>
<rect x="70.731" y="447.963" fill="#3C3C3B" width="23.577" height="23.577"/>
<rect x="23.577" y="400.809" fill="#81C395" width="23.578" height="23.578"/>
<rect x="117.885" y="447.963" fill="#3C3C3B" width="23.576" height="23.577"/>
<rect x="94.308" y="447.963" fill="#3C3C3B" width="23.577" height="23.577"/>
<rect x="165.04" y="424.387" fill="#E2BA7C" width="23.576" height="23.576"/>
<rect x="188.616" y="330.078" fill="#81C395" width="23.578" height="23.578"/>
<rect x="188.616" y="353.656" fill="#81C395" width="23.578" height="23.576"/>
<rect x="165.04" y="377.232" fill="#81C395" width="23.576" height="23.577"/>
<rect x="188.616" y="377.232" fill="#81C395" width="23.578" height="23.577"/>
<rect x="188.616" y="400.809" fill="#81C395" width="23.578" height="23.578"/>
<rect x="188.616" y="424.387" fill="#81C395" width="23.578" height="23.576"/>
<rect x="188.616" y="447.963" fill="#E2BA7C" width="23.578" height="23.577"/>
<rect x="188.616" y="424.387" fill="#E2BA7C" width="23.578" height="23.576"/>
<rect x="23.577" y="306.502" fill="#81C395" width="23.578" height="23.576"/>
<rect x="23.577" y="282.927" fill="#81C395" width="23.578" height="23.576"/>
<rect x="23.577" y="330.081" fill="#81C395" width="23.578" height="23.578"/>
<rect x="23.577" y="353.656" fill="#81C395" width="23.578" height="23.576"/>
<rect x="23.577" y="377.232" fill="#81C395" width="23.578" height="23.577"/>
<rect x="23.577" y="424.387" fill="#E2BA7C" width="23.578" height="23.576"/>
<rect x="23.577" y="447.963" fill="#E2BA7C" width="23.578" height="23.577"/>
<rect x="141.461" y="447.963" fill="#3C3C3B" width="23.578" height="23.577"/>
<rect x="70.731" y="471.541" fill="#3C3C3B" width="23.577" height="23.578"/>
<rect x="117.885" y="471.541" fill="#3C3C3B" width="23.576" height="23.578"/>
<rect x="94.308" y="471.541" fill="#3C3C3B" width="23.577" height="23.578"/>
<rect x="141.461" y="471.541" fill="#3C3C3B" width="23.578" height="23.578"/>
<rect x="70.731" y="495.119" fill="#3C3C3B" width="23.577" height="23.576"/>
<rect x="117.885" y="495.119" fill="#3C3C3B" width="23.576" height="23.576"/>
<rect x="94.308" y="495.119" fill="#3C3C3B" width="23.577" height="23.576"/>
<rect x="141.461" y="495.119" fill="#3C3C3B" width="23.578" height="23.576"/>
<rect x="70.731" y="518.695" fill="#3C3C3B" width="23.577" height="23.577"/>
<rect x="117.885" y="518.695" fill="#3C3C3B" width="23.576" height="23.577"/>
<rect x="94.308" y="518.695" fill="#3C3C3B" width="23.577" height="23.577"/>
<rect x="141.461" y="518.695" fill="#3C3C3B" width="23.578" height="23.577"/>
<rect x="70.731" y="542.272" fill="#E2BA7C" width="23.577" height="23.576"/>
<rect x="70.731" y="636.58" fill="#E2BA7C" width="23.577" height="23.578"/>
<rect x="70.731" y="660.158" fill="#E2BA7C" width="23.577" height="23.576"/>
<rect x="70.731" y="683.734" fill="#3C3C3B" width="23.577" height="23.577"/>
<rect x="70.731" y="707.311" fill="#3C3C3B" width="23.577" height="23.577"/>
<rect x="47.154" y="683.734" fill="#3C3C3B" width="23.577" height="23.577"/>
<rect x="165.04" y="683.734" fill="#3C3C3B" width="23.576" height="23.577"/>
<rect x="23.577" y="707.311" fill="#3C3C3B" width="23.578" height="23.577"/>
<rect x="188.616" y="707.311" fill="#3C3C3B" width="23.578" height="23.577"/>
<rect x="141.461" y="707.311" fill="#3C3C3B" width="23.578" height="23.577"/>
<rect x="141.461" y="636.58" fill="#E2BA7C" width="23.578" height="23.578"/>
<rect x="70.731" y="613.003" fill="#E2BA7C" width="23.577" height="23.576"/>
<rect x="141.461" y="613.003" fill="#E2BA7C" width="23.578" height="23.576"/>
<rect x="70.731" y="565.848" fill="#E2BA7C" width="23.577" height="23.578"/>
<rect x="141.461" y="565.848" fill="#E2BA7C" width="23.578" height="23.578"/>
<rect x="70.731" y="589.426" fill="#E2BA7C" width="23.577" height="23.577"/>
<rect x="141.461" y="589.426" fill="#E2BA7C" width="23.578" height="23.577"/>
<rect x="141.461" y="660.158" fill="#E2BA7C" width="23.578" height="23.576"/>
<rect x="141.461" y="683.734" fill="#3C3C3B" width="23.578" height="23.577"/>
<rect x="141.461" y="542.272" fill="#E2BA7C" width="23.578" height="23.576"/>
<rect x="165.04" y="471.541" fill="#3C3C3B" width="23.576" height="23.578"/>
<rect x="165.04" y="495.119" fill="#3C3C3B" width="23.576" height="23.576"/>
<rect x="165.04" y="424.387" fill="#3C3C3B" width="23.576" height="23.576"/>
<rect x="165.04" y="400.809" fill="#3C3C3B" width="23.576" height="23.578"/>
<rect x="165.04" y="447.963" fill="#3C3C3B" width="23.576" height="23.577"/>
<rect x="165.04" y="518.695" fill="#3C3C3B" width="23.576" height="23.577"/>
<rect x="47.154" y="447.963" fill="#3C3C3B" width="23.577" height="23.577"/>
<rect x="47.154" y="424.387" fill="#3C3C3B" width="23.577" height="23.576"/>
<rect x="47.154" y="400.809" fill="#3C3C3B" width="23.577" height="23.578"/>
<rect x="47.154" y="471.541" fill="#3C3C3B" width="23.577" height="23.578"/>
<rect x="47.154" y="495.119" fill="#3C3C3B" width="23.577" height="23.576"/>
<rect x="47.154" y="518.695" fill="#3C3C3B" width="23.577" height="23.577"/>
<rect x="94.308" y="330.078" fill="#083644" width="23.58" height="23.578"/>
<rect x="117.888" y="330.078" fill="#083644" width="23.58" height="23.578"/>
<rect x="94.303" y="353.656" fill="#083644" width="23.58" height="23.576"/>
<rect x="117.883" y="353.656" fill="#083644" width="23.579" height="23.576"/>
</svg>
